<?xml version="1.0" encoding="UTF-8" standalone="no"?><svg xmlns="http://www.w3.org/2000/svg" xmlns:xlink="http://www.w3.org/1999/xlink"><symbol id="dislike" width="24" height="24" viewBox="0 0 24 24" fill="none" xmlns="http://www.w3.org/2000/svg"><path d="M20 3H19V16H20C20.5304 16 21.0391 15.7893 21.4142 15.4142C21.7893 15.0391 22 14.5304 22 14V5C22 4.46957 21.7893 3.96086 21.4142 3.58579C21.0391 3.21071 20.5304 3 20 3ZM4 16H11L9.878 19.368C9.77789 19.6686 9.75061 19.9887 9.79843 20.3018C9.84624 20.615 9.96778 20.9124 10.153 21.1694C10.3383 21.4264 10.5819 21.6358 10.8639 21.7802C11.1459 21.9246 11.4582 21.9999 11.775 22H12L17 16.562V3H6L2.063 11.649L2 11.942V14C2 14.5304 2.21071 15.0391 2.58579 15.4142C2.96086 15.7893 3.46957 16 4 16Z" fill="#F9F8FE"></path></symbol><symbol id="details-to-favourite" width="36" height="46" viewBox="0 0 36 46" fill="none" xmlns="http://www.w3.org/2000/svg"><path d="M36 42.1276C36 43.7516 34.1666 44.6985 32.8423 43.7584L19.1577 34.0441C18.4644 33.5519 17.5356 33.5519 16.8423 34.0441L3.15771 43.7584C1.8334 44.6985 0 43.7516 0 42.1276V5.11111C0 3.75556 0.541835 2.45553 1.50631 1.49701C2.47078 0.53849 3.77889 0 5.14286 0H30.8571C32.2211 0 33.5292 0.53849 34.4937 1.49701C35.4582 2.45553 36 3.75556 36 5.11111V42.1276Z" fill="#131517"></path><path d="M18 13.2812V22.4688" stroke="white" stroke-width="2" stroke-linecap="round" stroke-linejoin="round"></path><path d="M13.9141 17.875H22.0807" stroke="white" stroke-width="2" stroke-linecap="round" stroke-linejoin="round"></path></symbol><symbol id="details-in-favourite" width="84" height="396" viewBox="0 0 84 396" fill="none" xmlns="http://www.w3.org/2000/svg"><g filter="url(#filter0_d_2556_11855)"><path d="M38 208.015C38 208.836 37.0647 209.307 36.4048 208.818L29.5952 203.774C29.2416 203.512 28.7584 203.512 28.4048 203.774L21.5952 208.818C20.9353 209.307 20 208.836 20 208.015V188.667C20 187.959 20.2709 187.281 20.7532 186.781C21.2354 186.281 21.8894 186 22.5714 186H35.4286C36.1106 186 36.7646 186.281 37.2468 186.781C37.7291 187.281 38 187.959 38 188.667V208.015Z" fill="#F80032"></path></g><path d="M32 193L27.875 197L26 195.182" stroke="white" stroke-linecap="round" stroke-linejoin="round"></path><defs><filter id="filter0_d_2556_11855" x="-194" y="-26" width="446" height="451.017" filterUnits="userSpaceOnUse" color-interpolation-filters="sRGB"><feFlood flood-opacity="0" result="BackgroundImageFix"></feFlood><feColorMatrix in="SourceAlpha" type="matrix" values="0 0 0 0 0 0 0 0 0 0 0 0 0 0 0 0 0 0 127 0" result="hardAlpha"></feColorMatrix><feOffset dy="2"></feOffset><feGaussianBlur stdDeviation="107"></feGaussianBlur><feComposite in2="hardAlpha" operator="out"></feComposite><feColorMatrix type="matrix" values="0 0 0 0 0.271152 0 0 0 0 0.271152 0 0 0 0 0.271152 0 0 0 0.21 0"></feColorMatrix><feBlend mode="normal" in2="BackgroundImageFix" result="effect1_dropShadow_2556_11855"></feBlend><feBlend mode="normal" in="SourceGraphic" in2="effect1_dropShadow_2556_11855" result="shape"></feBlend></filter></defs></symbol><symbol id="eye-hide" width="24" height="24" viewBox="0 0 24 24" fill="none" xmlns="http://www.w3.org/2000/svg"><path d="M14.5319 9.47188L9.47188 14.5319C8.82188 13.8819 8.42188 12.9919 8.42188 12.0019C8.42188 10.0219 10.0219 8.42188 12.0019 8.42188C12.9919 8.42188 13.8819 8.82188 14.5319 9.47188Z" stroke="#8E8E8E" stroke-width="1.5" stroke-linecap="round" stroke-linejoin="round"></path><path d="M17.8198 5.77047C16.0698 4.45047 14.0698 3.73047 11.9998 3.73047C8.46984 3.73047 5.17984 5.81047 2.88984 9.41047C1.98984 10.8205 1.98984 13.1905 2.88984 14.6005C3.67984 15.8405 4.59984 16.9105 5.59984 17.7705" stroke="#8E8E8E" stroke-width="1.5" stroke-linecap="round" stroke-linejoin="round"></path><path d="M8.42188 19.5297C9.56187 20.0097 10.7719 20.2697 12.0019 20.2697C15.5319 20.2697 18.8219 18.1897 21.1119 14.5897C22.0119 13.1797 22.0119 10.8097 21.1119 9.39969C20.7819 8.87969 20.4219 8.38969 20.0519 7.92969" stroke="#8E8E8E" stroke-width="1.5" stroke-linecap="round" stroke-linejoin="round"></path><path d="M15.5114 12.6992C15.2514 14.1092 14.1014 15.2592 12.6914 15.5192" stroke="#8E8E8E" stroke-width="1.5" stroke-linecap="round" stroke-linejoin="round"></path><path d="M9.47 14.5312L2 22.0013" stroke="#8E8E8E" stroke-width="1.5" stroke-linecap="round" stroke-linejoin="round"></path><path d="M22.0013 2L14.5312 9.47" stroke="#8E8E8E" stroke-width="1.5" stroke-linecap="round" stroke-linejoin="round"></path></symbol><symbol id="eye-show" width="24" height="24" viewBox="0 0 24 24" fill="none" xmlns="http://www.w3.org/2000/svg"><path d="M15.5819 12.0019C15.5819 13.9819 13.9819 15.5819 12.0019 15.5819C10.0219 15.5819 8.42188 13.9819 8.42188 12.0019C8.42188 10.0219 10.0219 8.42188 12.0019 8.42188C13.9819 8.42188 15.5819 10.0219 15.5819 12.0019Z" stroke="#8E8E8E" stroke-width="1.5" stroke-linecap="round" stroke-linejoin="round"></path><path d="M11.9998 20.2688C15.5298 20.2688 18.8198 18.1887 21.1098 14.5887C22.0098 13.1787 22.0098 10.8087 21.1098 9.39875C18.8198 5.79875 15.5298 3.71875 11.9998 3.71875C8.46984 3.71875 5.17984 5.79875 2.88984 9.39875C1.98984 10.8087 1.98984 13.1787 2.88984 14.5887C5.17984 18.1887 8.46984 20.2688 11.9998 20.2688Z" stroke="#8E8E8E" stroke-width="1.5" stroke-linecap="round" stroke-linejoin="round"></path></symbol><symbol id="close" width="16" height="16" viewBox="0 0 16 16" fill="none" xmlns="http://www.w3.org/2000/svg"><path d="M15 1L1 15" stroke="#F9F8FE" stroke-width="2" stroke-linecap="round" stroke-linejoin="round"></path><path d="M1 1L15 15" stroke="#F9F8FE" stroke-width="2" stroke-linecap="round" stroke-linejoin="round"></path></symbol><symbol id="google" width="24" height="24" viewBox="0 0 24 24" fill="none" xmlns="http://www.w3.org/2000/svg"><path d="M23.0001 12.2445C23.0001 11.34 22.9252 10.68 22.7632 9.99561H12.2246V14.0778H18.4105C18.2858 15.0923 17.6124 16.62 16.1157 17.6466L16.0948 17.7833L19.4269 20.313L19.6577 20.3356C21.7779 18.4167 23.0001 15.5933 23.0001 12.2445Z" fill="#4285F4"></path><path d="M12.2245 23C15.2551 23 17.7993 22.0221 19.6576 20.3355L16.1156 17.6466C15.1678 18.2944 13.8957 18.7466 12.2245 18.7466C9.25627 18.7466 6.73702 16.8278 5.83897 14.1755L5.70734 14.1865L2.24258 16.8143L2.19727 16.9377C4.04305 20.531 7.83445 23 12.2245 23Z" fill="#34A853"></path><path d="M5.83896 14.1756C5.602 13.4911 5.46486 12.7577 5.46486 12C5.46486 11.2422 5.602 10.5089 5.82649 9.82443L5.82021 9.67866L2.31203 7.00867L2.19725 7.06217C1.43651 8.5533 1 10.2278 1 12C1 13.7722 1.43651 15.4466 2.19725 16.9377L5.83896 14.1756Z" fill="#FBBC05"></path><path d="M12.2245 5.2533C14.3322 5.2533 15.7539 6.14552 16.5646 6.89113L19.7324 3.86C17.7869 2.08778 15.2551 1 12.2245 1C7.83445 1 4.04305 3.46887 2.19727 7.06217L5.8265 9.82443C6.73702 7.17222 9.25627 5.2533 12.2245 5.2533Z" fill="#EB4335"></path></symbol><symbol id="google-disabled" width="24" height="24" viewBox="0 0 24 24" fill="none" xmlns="http://www.w3.org/2000/svg"><path d="M23.0001 12.2445C23.0001 11.34 22.9252 10.68 22.7632 9.99561H12.2246V14.0778H18.4105C18.2858 15.0923 17.6124 16.62 16.1157 17.6466L16.0948 17.7833L19.4269 20.313L19.6577 20.3356C21.7779 18.4167 23.0001 15.5933 23.0001 12.2445Z" fill="#132F61"></path><path d="M12.2245 23C15.2551 23 17.7993 22.0221 19.6576 20.3355L16.1156 17.6466C15.1678 18.2944 13.8957 18.7466 12.2245 18.7466C9.25626 18.7466 6.73702 16.8278 5.83897 14.1755L5.70734 14.1865L2.24258 16.8143L2.19727 16.9377C4.04305 20.531 7.83444 23 12.2245 23Z" fill="#004100"></path><path d="M5.83896 14.1757C5.602 13.4912 5.46486 12.7578 5.46486 12.0001C5.46486 11.2423 5.602 10.509 5.82649 9.82455L5.82021 9.67878L2.31203 7.00879L2.19725 7.06229C1.43651 8.55342 1 10.2279 1 12.0001C1 13.7723 1.43651 15.4467 2.19725 16.9378L5.83896 14.1757Z" fill="#774900"></path><path d="M12.2245 5.2533C14.3322 5.2533 15.7539 6.14552 16.5646 6.89113L19.7324 3.86C17.7869 2.08778 15.2551 1 12.2245 1C7.83444 1 4.04305 3.46887 2.19727 7.06217L5.8265 9.82443C6.73702 7.17222 9.25626 5.2533 12.2245 5.2533Z" fill="#3A1510"></path></symbol><symbol id="home" width="24" height="24" viewBox="0 0 24 24" fill="none" xmlns="http://www.w3.org/2000/svg"><path d="M1 8.7L12 1L23 8.7V20.8C23 21.3835 22.7425 21.9431 22.284 22.3556C21.8256 22.7682 21.2039 23 20.5556 23H3.44444C2.79614 23 2.17438 22.7682 1.71596 22.3556C1.25754 21.9431 1 21.3835 1 20.8V8.7Z" stroke="#F9F8FE" stroke-linecap="round" stroke-linejoin="round"></path><path d="M8.3335 23V12H15.6668V23" stroke="#F9F8FE" stroke-linecap="round" stroke-linejoin="round"></path></symbol><symbol id="disliked" width="24" height="24" viewBox="0 0 24 24" fill="none" xmlns="http://www.w3.org/2000/svg"><path d="M20 3H19V16H20C20.5304 16 21.0391 15.7893 21.4142 15.4142C21.7893 15.0391 22 14.5304 22 14V5C22 4.46957 21.7893 3.96086 21.4142 3.58579C21.0391 3.21071 20.5304 3 20 3ZM4 16H11L9.878 19.368C9.77789 19.6686 9.75061 19.9887 9.79843 20.3018C9.84624 20.615 9.96778 20.9124 10.153 21.1694C10.3383 21.4264 10.5819 21.6358 10.8639 21.7802C11.1459 21.9246 11.4582 21.9999 11.775 22H12L17 16.562V3H6L2.063 11.649L2 11.942V14C2 14.5304 2.21071 15.0391 2.58579 15.4142C2.96086 15.7893 3.46957 16 4 16Z" fill="#F80032"></path></symbol><symbol id="instagram" width="24" height="24" viewBox="0 0 24 24" fill="none" xmlns="http://www.w3.org/2000/svg"><circle cx="12" cy="12" r="12" fill="#0E0D0E"></circle><path fill-rule="evenodd" clip-rule="evenodd" d="M8.26748 5C6.4629 5 5 6.4629 5 8.26748V15.8024C5 17.607 6.4629 19.0699 8.26748 19.0699H15.8024C17.607 19.0699 19.0699 17.607 19.0699 15.8024V8.26748C19.0699 6.4629 17.607 5 15.8024 5H8.26748ZM4 8.26748C4 5.91062 5.91062 4 8.26748 4H15.8024C18.1593 4 20.0699 5.91062 20.0699 8.26748V15.8024C20.0699 18.1593 18.1593 20.0699 15.8024 20.0699H8.26748C5.91062 20.0699 4 18.1593 4 15.8024V8.26748ZM12.4364 9.51543C11.9134 9.43786 11.3792 9.52721 10.9098 9.77075C10.4404 10.0143 10.0598 10.3996 9.82209 10.872C9.58436 11.3443 9.50161 11.8795 9.58562 12.4016C9.66962 12.9237 9.91611 13.406 10.29 13.7799C10.6639 14.1538 11.1462 14.4003 11.6683 14.4843C12.1903 14.5683 12.7256 14.4855 13.1979 14.2478C13.6703 14.0101 14.0556 13.6294 14.2991 13.1601C14.5427 12.6907 14.632 12.1565 14.5545 11.6335C14.4753 11.0999 14.2267 10.606 13.8453 10.2246C13.4639 9.84316 12.97 9.59454 12.4364 9.51543ZM10.4492 8.88312C11.1053 8.54271 11.852 8.41783 12.5831 8.52624C13.3289 8.63683 14.0193 8.98435 14.5524 9.51746C15.0855 10.0506 15.4331 10.741 15.5436 11.4868C15.6521 12.2179 15.5272 12.9646 15.1868 13.6207C14.8463 14.2767 14.3077 14.8087 13.6475 15.141C12.9873 15.4733 12.2391 15.589 11.5094 15.4716C10.7797 15.3541 10.1055 15.0096 9.58291 14.487C9.06027 13.9643 8.71574 13.2902 8.59832 12.5605C8.48089 11.8308 8.59656 11.0826 8.92886 10.4224C9.26116 9.76216 9.79317 9.22354 10.4492 8.88312ZM16.1792 7.39074C15.903 7.39074 15.6792 7.6146 15.6792 7.89074C15.6792 8.16688 15.903 8.39074 16.1792 8.39074H16.1878C16.464 8.39074 16.6878 8.16688 16.6878 7.89074C16.6878 7.6146 16.464 7.39074 16.1878 7.39074H16.1792Z" fill="#F9F8FE"></path></symbol><symbol id="facebook" width="24" height="24" viewBox="0 0 24 24" fill="none" xmlns="http://www.w3.org/2000/svg"><circle cx="12" cy="12" r="12" fill="#0E0D0E"></circle><path d="M16 4H13.8182C12.8538 4 11.9288 4.42143 11.2469 5.17157C10.5649 5.92172 10.1818 6.93913 10.1818 8V10.4H8V13.6H10.1818V20H13.0909V13.6H15.2727L16 10.4H13.0909V8C13.0909 7.78783 13.1675 7.58434 13.3039 7.43431C13.4403 7.28429 13.6253 7.2 13.8182 7.2H16V4Z" stroke="#F9F8FE" stroke-linecap="round" stroke-linejoin="round"></path></symbol><symbol id="like" width="24" height="24" viewBox="0 0 24 24" fill="none" xmlns="http://www.w3.org/2000/svg"><path d="M20 21H19V8H20C20.5304 8 21.0391 8.21071 21.4142 8.58579C21.7893 8.96086 22 9.46957 22 10V19C22 19.5304 21.7893 20.0391 21.4142 20.4142C21.0391 20.7893 20.5304 21 20 21ZM4 8H11L9.878 4.632C9.77789 4.33142 9.75061 4.01134 9.79843 3.69815C9.84624 3.38496 9.96778 3.08761 10.153 2.8306C10.3383 2.57358 10.5819 2.36424 10.8639 2.21984C11.1459 2.07543 11.4582 2.00008 11.775 2H12L17 7.438V21H6L2.063 12.351L2 12.058V10C2 9.46957 2.21071 8.96086 2.58579 8.58579C2.96086 8.21071 3.46957 8 4 8Z" fill="#F9F8FE"></path></symbol><symbol id="liked" width="24" height="24" viewBox="0 0 24 24" fill="none" xmlns="http://www.w3.org/2000/svg"><path d="M20 21H19V8H20C20.5304 8 21.0391 8.21071 21.4142 8.58579C21.7893 8.96086 22 9.46957 22 10V19C22 19.5304 21.7893 20.0391 21.4142 20.4142C21.0391 20.7893 20.5304 21 20 21ZM4 8H11L9.878 4.632C9.77789 4.33142 9.75061 4.01134 9.79843 3.69815C9.84624 3.38496 9.96778 3.08761 10.153 2.8306C10.3383 2.57358 10.5819 2.36424 10.8639 2.21984C11.1459 2.07543 11.4582 2.00008 11.775 2H12L17 7.438V21H6L2.063 12.351L2 12.058V10C2 9.46957 2.21071 8.96086 2.58579 8.58579C2.96086 8.21071 3.46957 8 4 8Z" fill="#008000"></path></symbol><symbol id="logo" width="111" height="48" viewBox="0 0 111 48" fill="none" xmlns="http://www.w3.org/2000/svg"><path d="M4.65621 42V3.19824H13.8578L24.0571 19.6058L34.2564 3.19824H43.458V42H34.977V16.668L24.0571 33.2419H23.8354L13.0263 16.8343V42H4.65621Z" fill="#F80032"></path><path d="M63.2958 38.0257C61.7433 39.5635 59.7953 40.3325 57.4519 40.3325C55.1084 40.3325 53.1605 39.5635 51.6079 38.0257C50.0701 36.4878 49.3011 34.6057 49.3011 32.3794C49.3011 30.1678 50.0774 28.2931 51.6299 26.7552C53.1971 25.2027 55.1524 24.4264 57.4958 24.4264C59.8393 24.4264 61.7799 25.1954 63.3178 26.7332C64.8703 28.2711 65.6466 30.1532 65.6466 32.3794C65.6466 34.5911 64.863 36.4731 63.2958 38.0257ZM54.1564 35.8067C55.0352 36.7441 56.1483 37.2128 57.4958 37.2128C58.8433 37.2128 59.9491 36.7514 60.8132 35.8287C61.6774 34.8913 62.1095 33.7416 62.1095 32.3794C62.1095 31.032 61.6701 29.8895 60.7913 28.9522C59.9125 28.0148 58.7994 27.5461 57.4519 27.5461C56.1044 27.5461 54.9986 28.0148 54.1345 28.9522C53.2703 29.8749 52.8382 31.0173 52.8382 32.3794C52.8382 33.7269 53.2776 34.8693 54.1564 35.8067ZM74.7571 40.1787L68.5397 24.69H72.2746L76.295 35.5211L80.3155 24.69H83.9625L77.745 40.1787H74.7571ZM88.6859 40.0688V24.69H92.0693V40.0688H88.6859ZM98.1096 40.0688V24.69H109.71V27.6999H101.471V30.8196H108.721V33.8294H101.471V37.059H109.819V40.0688H98.1096Z" fill="#F9F8FE"></path><path d="M50.136 18.8628V3.48399H53.5193V18.8628H50.136ZM58.3952 18.8628L63.7558 11.0416L58.6149 3.48399H62.5694L65.799 8.47112L69.0505 3.48399H72.8952L67.7543 10.9976L73.1149 18.8628H69.1604L65.7111 13.5901L62.2399 18.8628H58.3952Z" fill="#F9F8FE"></path></symbol><symbol id="star" width="24" height="24" viewBox="0 0 24 24" fill="none" xmlns="http://www.w3.org/2000/svg"><path d="M11.0489 2.92705C11.3483 2.00574 12.6517 2.00574 12.9511 2.92705L14.4697 7.60081C14.6035 8.01284 14.9875 8.2918 15.4207 8.2918H20.335C21.3037 8.2918 21.7065 9.53141 20.9228 10.1008L16.947 12.9894C16.5966 13.244 16.4499 13.6954 16.5838 14.1074L18.1024 18.7812C18.4017 19.7025 17.3472 20.4686 16.5635 19.8992L12.5878 17.0106C12.2373 16.756 11.7627 16.756 11.4122 17.0106L7.43648 19.8992C6.65276 20.4686 5.59828 19.7025 5.89763 18.7812L7.41623 14.1074C7.55011 13.6954 7.40345 13.244 7.05296 12.9894L3.07722 10.1008C2.29351 9.53141 2.69628 8.2918 3.66501 8.2918H8.57929C9.01252 8.2918 9.39647 8.01284 9.53035 7.60081L11.0489 2.92705Z" fill="#F86800"></path></symbol><symbol id="telegram" width="24" height="24" viewBox="0 0 24 24" fill="none" xmlns="http://www.w3.org/2000/svg"><circle cx="12" cy="12" r="12" fill="#0E0D0E"></circle><path d="M19 5L10 14" stroke="#F9F8FE" stroke-linecap="round" stroke-linejoin="round"></path><path d="M19 5L13.4 21L10.2 13.8L3 10.6L19 5Z" stroke="#F9F8FE" stroke-linecap="round" stroke-linejoin="round"></path></symbol><symbol id="to-favourite" width="46" height="57" viewBox="0 0 46 57" fill="none" xmlns="http://www.w3.org/2000/svg"><path d="M45 53.1364C45 54.7588 43.17 55.7061 41.8453 54.7694L24.1547 42.2609C23.4626 41.7716 22.5374 41.7716 21.8453 42.2609L4.15466 54.7694C2.82999 55.7061 1 54.7588 1 53.1364V7.22222C1 5.57199 1.66224 3.98934 2.84104 2.82245C4.01984 1.65555 5.61864 1 7.28571 1H38.7143C40.3814 1 41.9802 1.65555 43.159 2.82245C44.3378 3.98934 45 5.57199 45 7.22222V53.1364Z" fill="#0B0D0F" fill-opacity="0.6" stroke="#F9F8FE" stroke-linecap="round" stroke-linejoin="round"></path><path d="M23 16.9375V27.9625" stroke="white" stroke-width="2" stroke-linecap="round" stroke-linejoin="round"></path><path d="M17.75 22.4492H28.25" stroke="white" stroke-width="2" stroke-linecap="round" stroke-linejoin="round"></path></symbol><symbol id="toast-error" width="24" height="24" viewBox="0 0 24 24" fill="none" xmlns="http://www.w3.org/2000/svg"><rect width="24" height="24" rx="12" fill="#F80032"></rect><path d="M15.5971 9.20857C15.8196 8.98608 15.8196 8.62535 15.5971 8.40286C15.3747 8.18037 15.0139 8.18037 14.7914 8.40286L12.7071 10.4872C12.3166 10.8777 11.6834 10.8777 11.2929 10.4872L9.20857 8.40286C8.98608 8.18037 8.62535 8.18037 8.40286 8.40286C8.18037 8.62535 8.18037 8.98608 8.40286 9.20857L10.4872 11.2929C10.8777 11.6834 10.8777 12.3166 10.4872 12.7071L8.40286 14.7914C8.18037 15.0139 8.18037 15.3747 8.40286 15.5971C8.62535 15.8196 8.98608 15.8196 9.20857 15.5971L11.2929 13.5128C11.6834 13.1223 12.3166 13.1223 12.7071 13.5128L14.7914 15.5971C15.0139 15.8196 15.3747 15.8196 15.5971 15.5971C15.8196 15.3747 15.8196 15.0139 15.5971 14.7914L13.5128 12.7071C13.1223 12.3166 13.1223 11.6834 13.5128 11.2929L15.5971 9.20857Z" fill="#F9F8FE" stroke="#F9F8FE"></path></symbol><symbol id="toast-warning" width="24" height="24" viewBox="0 0 24 24" fill="none" xmlns="http://www.w3.org/2000/svg"><g clip-path="url(#clip0_2563_13078)"><path d="M23.7299 20.6256C24.499 22.1253 23.5336 24 21.9975 24H2.00226C0.46322 24 -0.497696 22.1224 0.269887 20.6256L10.2676 1.1243C11.0371 -0.376126 12.9643 -0.373407 13.7324 1.1243L23.7299 20.6256ZM12 16.5938C10.9415 16.5938 10.0833 17.5591 10.0833 18.75C10.0833 19.9409 10.9415 20.9062 12 20.9062C13.0585 20.9062 13.9167 19.9409 13.9167 18.75C13.9167 17.5591 13.0585 16.5938 12 16.5938ZM10.1803 8.84316L10.4894 15.2182C10.5038 15.5165 10.7231 15.75 10.9886 15.75H13.0114C13.2769 15.75 13.4962 15.5165 13.5106 15.2182L13.8197 8.84316C13.8353 8.52094 13.6073 8.25 13.3205 8.25H10.6795C10.3927 8.25 10.1647 8.52094 10.1803 8.84316Z" fill="#F86800"></path></g><defs><clipPath id="clip0_2563_13078"><rect width="24" height="24" fill="white"></rect></clipPath></defs></symbol><symbol id="in-favourite" width="84" height="357" viewBox="0 0 84 357" fill="none" xmlns="http://www.w3.org/2000/svg"><g filter="url(#filter0_d_2556_11847)"><path d="M64 138.136C64 139.759 62.17 140.706 60.8453 139.769L43.1547 127.261C42.4626 126.772 41.5374 126.772 40.8453 127.261L23.1547 139.769C21.83 140.706 20 139.759 20 138.136V92.2222C20 90.572 20.6622 88.9893 21.841 87.8224C23.0198 86.6556 24.6186 86 26.2857 86H57.7143C59.3814 86 60.9802 86.6556 62.159 87.8224C63.3378 88.9893 64 90.572 64 92.2222V138.136Z" fill="#F80032"></path></g><path d="M48 104L39.75 112.25L36 108.5" stroke="white" stroke-width="3" stroke-linecap="round" stroke-linejoin="round"></path><defs><filter id="filter0_d_2556_11847" x="-194" y="-126" width="472" height="482.14" filterUnits="userSpaceOnUse" color-interpolation-filters="sRGB"><feFlood flood-opacity="0" result="BackgroundImageFix"></feFlood><feColorMatrix in="SourceAlpha" type="matrix" values="0 0 0 0 0 0 0 0 0 0 0 0 0 0 0 0 0 0 127 0" result="hardAlpha"></feColorMatrix><feOffset dy="2"></feOffset><feGaussianBlur stdDeviation="107"></feGaussianBlur><feComposite in2="hardAlpha" operator="out"></feComposite><feColorMatrix type="matrix" values="0 0 0 0 0.271152 0 0 0 0 0.271152 0 0 0 0 0.271152 0 0 0 0.21 0"></feColorMatrix><feBlend mode="normal" in2="BackgroundImageFix" result="effect1_dropShadow_2556_11847"></feBlend><feBlend mode="normal" in="SourceGraphic" in2="effect1_dropShadow_2556_11847" result="shape"></feBlend></filter></defs></symbol></svg>