<svg width="24" height="24" viewBox="0 0 24 24" fill="none" xmlns="http://www.w3.org/2000/svg">
<path d="M23.0001 12.2445C23.0001 11.34 22.9252 10.68 22.7632 9.99561H12.2246V14.0778H18.4105C18.2858 15.0923 17.6124 16.62 16.1157 17.6466L16.0948 17.7833L19.4269 20.313L19.6577 20.3356C21.7779 18.4167 23.0001 15.5933 23.0001 12.2445Z" fill="#4285F4"/>
<path d="M12.2245 23C15.2551 23 17.7993 22.0221 19.6576 20.3355L16.1156 17.6466C15.1678 18.2944 13.8957 18.7466 12.2245 18.7466C9.25627 18.7466 6.73702 16.8278 5.83897 14.1755L5.70734 14.1865L2.24258 16.8143L2.19727 16.9377C4.04305 20.531 7.83445 23 12.2245 23Z" fill="#34A853"/>
<path d="M5.83896 14.1756C5.602 13.4911 5.46486 12.7577 5.46486 12C5.46486 11.2422 5.602 10.5089 5.82649 9.82443L5.82021 9.67866L2.31203 7.00867L2.19725 7.06217C1.43651 8.5533 1 10.2278 1 12C1 13.7722 1.43651 15.4466 2.19725 16.9377L5.83896 14.1756Z" fill="#FBBC05"/>
<path d="M12.2245 5.2533C14.3322 5.2533 15.7539 6.14552 16.5646 6.89113L19.7324 3.86C17.7869 2.08778 15.2551 1 12.2245 1C7.83445 1 4.04305 3.46887 2.19727 7.06217L5.8265 9.82443C6.73702 7.17222 9.25627 5.2533 12.2245 5.2533Z" fill="#EB4335"/>
</svg>
