<svg width="84" height="357" viewBox="0 0 84 357" fill="none" xmlns="http://www.w3.org/2000/svg">
<g filter="url(#filter0_d_2556_11847)">
<path d="M64 138.136C64 139.759 62.17 140.706 60.8453 139.769L43.1547 127.261C42.4626 126.772 41.5374 126.772 40.8453 127.261L23.1547 139.769C21.83 140.706 20 139.759 20 138.136V92.2222C20 90.572 20.6622 88.9893 21.841 87.8224C23.0198 86.6556 24.6186 86 26.2857 86H57.7143C59.3814 86 60.9802 86.6556 62.159 87.8224C63.3378 88.9893 64 90.572 64 92.2222V138.136Z" fill="#F80032"/>
</g>
<path d="M48 104L39.75 112.25L36 108.5" stroke="white" stroke-width="3" stroke-linecap="round" stroke-linejoin="round"/>
<defs>
<filter id="filter0_d_2556_11847" x="-194" y="-126" width="472" height="482.14" filterUnits="userSpaceOnUse" color-interpolation-filters="sRGB">
<feFlood flood-opacity="0" result="BackgroundImageFix"/>
<feColorMatrix in="SourceAlpha" type="matrix" values="0 0 0 0 0 0 0 0 0 0 0 0 0 0 0 0 0 0 127 0" result="hardAlpha"/>
<feOffset dy="2"/>
<feGaussianBlur stdDeviation="107"/>
<feComposite in2="hardAlpha" operator="out"/>
<feColorMatrix type="matrix" values="0 0 0 0 0.271152 0 0 0 0 0.271152 0 0 0 0 0.271152 0 0 0 0.21 0"/>
<feBlend mode="normal" in2="BackgroundImageFix" result="effect1_dropShadow_2556_11847"/>
<feBlend mode="normal" in="SourceGraphic" in2="effect1_dropShadow_2556_11847" result="shape"/>
</filter>
</defs>
</svg>
