<svg width="24" height="24" viewBox="0 0 24 24" fill="none" xmlns="http://www.w3.org/2000/svg">
<path d="M20 21H19V8H20C20.5304 8 21.0391 8.21071 21.4142 8.58579C21.7893 8.96086 22 9.46957 22 10V19C22 19.5304 21.7893 20.0391 21.4142 20.4142C21.0391 20.7893 20.5304 21 20 21ZM4 8H11L9.878 4.632C9.77789 4.33142 9.75061 4.01134 9.79843 3.69815C9.84624 3.38496 9.96778 3.08761 10.153 2.8306C10.3383 2.57358 10.5819 2.36424 10.8639 2.21984C11.1459 2.07543 11.4582 2.00008 11.775 2H12L17 7.438V21H6L2.063 12.351L2 12.058V10C2 9.46957 2.21071 8.96086 2.58579 8.58579C2.96086 8.21071 3.46957 8 4 8Z" fill="#F9F8FE"/>
</svg>
