<svg width="111" height="48" viewBox="0 0 111 48" fill="none" xmlns="http://www.w3.org/2000/svg">
<path d="M4.65621 42V3.19824H13.8578L24.0571 19.6058L34.2564 3.19824H43.458V42H34.977V16.668L24.0571 33.2419H23.8354L13.0263 16.8343V42H4.65621Z" fill="#F80032"/>
<path d="M63.2958 38.0257C61.7433 39.5635 59.7953 40.3325 57.4519 40.3325C55.1084 40.3325 53.1605 39.5635 51.6079 38.0257C50.0701 36.4878 49.3011 34.6057 49.3011 32.3794C49.3011 30.1678 50.0774 28.2931 51.6299 26.7552C53.1971 25.2027 55.1524 24.4264 57.4958 24.4264C59.8393 24.4264 61.7799 25.1954 63.3178 26.7332C64.8703 28.2711 65.6466 30.1532 65.6466 32.3794C65.6466 34.5911 64.863 36.4731 63.2958 38.0257ZM54.1564 35.8067C55.0352 36.7441 56.1483 37.2128 57.4958 37.2128C58.8433 37.2128 59.9491 36.7514 60.8132 35.8287C61.6774 34.8913 62.1095 33.7416 62.1095 32.3794C62.1095 31.032 61.6701 29.8895 60.7913 28.9522C59.9125 28.0148 58.7994 27.5461 57.4519 27.5461C56.1044 27.5461 54.9986 28.0148 54.1345 28.9522C53.2703 29.8749 52.8382 31.0173 52.8382 32.3794C52.8382 33.7269 53.2776 34.8693 54.1564 35.8067ZM74.7571 40.1787L68.5397 24.69H72.2746L76.295 35.5211L80.3155 24.69H83.9625L77.745 40.1787H74.7571ZM88.6859 40.0688V24.69H92.0693V40.0688H88.6859ZM98.1096 40.0688V24.69H109.71V27.6999H101.471V30.8196H108.721V33.8294H101.471V37.059H109.819V40.0688H98.1096Z" fill="#F9F8FE"/>
<path d="M50.136 18.8628V3.48399H53.5193V18.8628H50.136ZM58.3952 18.8628L63.7558 11.0416L58.6149 3.48399H62.5694L65.799 8.47112L69.0505 3.48399H72.8952L67.7543 10.9976L73.1149 18.8628H69.1604L65.7111 13.5901L62.2399 18.8628H58.3952Z" fill="#F9F8FE"/>
</svg>
