<svg width="24" height="24" viewBox="0 0 24 24" fill="none" xmlns="http://www.w3.org/2000/svg">
<rect width="24" height="24" rx="12" fill="#F80032"/>
<path d="M15.5971 9.20857C15.8196 8.98608 15.8196 8.62535 15.5971 8.40286C15.3747 8.18037 15.0139 8.18037 14.7914 8.40286L12.7071 10.4872C12.3166 10.8777 11.6834 10.8777 11.2929 10.4872L9.20857 8.40286C8.98608 8.18037 8.62535 8.18037 8.40286 8.40286C8.18037 8.62535 8.18037 8.98608 8.40286 9.20857L10.4872 11.2929C10.8777 11.6834 10.8777 12.3166 10.4872 12.7071L8.40286 14.7914C8.18037 15.0139 8.18037 15.3747 8.40286 15.5971C8.62535 15.8196 8.98608 15.8196 9.20857 15.5971L11.2929 13.5128C11.6834 13.1223 12.3166 13.1223 12.7071 13.5128L14.7914 15.5971C15.0139 15.8196 15.3747 15.8196 15.5971 15.5971C15.8196 15.3747 15.8196 15.0139 15.5971 14.7914L13.5128 12.7071C13.1223 12.3166 13.1223 11.6834 13.5128 11.2929L15.5971 9.20857Z" fill="#F9F8FE" stroke="#F9F8FE"/>
</svg>
